<svg width="303" height="228" viewBox="0 0 303 228" fill="none" xmlns="http://www.w3.org/2000/svg">
<g filter="url(#filter0_d_130_3276)">
<rect width="268.051" height="53.3782" rx="5.63903" transform="matrix(0.866044 -0.499967 0.866044 0.499967 0.660156 134.495)" fill="white"/>
<path d="M20.6212 133.547C21.0173 133.319 21.4405 133.162 21.8909 133.078C22.3467 132.99 22.7917 132.977 23.2258 133.04C23.6653 133.1 24.0533 133.226 24.3897 133.421C24.7261 133.615 24.9459 133.842 25.049 134.102C25.1521 134.356 25.1304 134.616 24.9839 134.882C24.8374 135.142 24.5715 135.383 24.1862 135.606L23.0304 136.273L25.2769 137.57L24.3979 138.077L18.5863 134.722L20.6212 133.547ZM23.3642 135.225C23.7603 135.003 23.9665 134.78 23.9827 134.558C24.0045 134.332 23.8471 134.122 23.5107 133.928C23.1742 133.734 22.8134 133.645 22.4281 133.66C22.0483 133.673 21.663 133.792 21.2723 134.017L20.1979 134.638L22.2897 135.845L23.3642 135.225ZM27.758 132.172C27.3781 132.403 27.2045 132.657 27.2371 132.933C27.2696 133.202 27.5084 133.465 27.9533 133.722L29.9475 134.873L29.1091 135.357L24.901 132.928L25.7313 132.449L26.6999 132.999L26.708 132.994C26.4801 132.762 26.3851 132.535 26.4231 132.313C26.4611 132.084 26.6266 131.876 26.9196 131.688L27.758 132.172ZM33.7269 132.814C33.3145 133.052 32.8506 133.21 32.3351 133.288C31.8196 133.367 31.3041 133.363 30.7886 133.279C30.2731 133.188 29.8037 133.02 29.3805 132.776C28.9572 132.532 28.6669 132.261 28.5095 131.963C28.3576 131.662 28.3495 131.363 28.4851 131.066C28.6208 130.768 28.8948 130.5 29.3072 130.262C29.7196 130.024 30.1808 129.868 30.6909 129.792C31.2064 129.714 31.7219 129.72 32.2374 129.811C32.7583 129.899 33.2304 130.065 33.6536 130.309C34.0769 130.554 34.3645 130.826 34.5164 131.127C34.6684 131.421 34.6765 131.717 34.5408 132.015C34.4106 132.309 34.1393 132.576 33.7269 132.814ZM33.0351 132.414C33.2847 132.27 33.442 132.104 33.5071 131.916C33.5668 131.725 33.537 131.532 33.4176 131.338C33.2982 131.138 33.0975 130.956 32.8153 130.793C32.5277 130.627 32.213 130.511 31.8711 130.445C31.5293 130.373 31.1955 130.356 30.87 130.394C30.539 130.428 30.2487 130.518 29.9991 130.662C29.7494 130.806 29.5921 130.975 29.527 131.169C29.4618 131.357 29.489 131.551 29.6084 131.752C29.7277 131.946 29.9312 132.126 30.2188 132.292C30.501 132.455 30.813 132.572 31.1548 132.645C31.4967 132.71 31.8331 132.726 32.1641 132.692C32.4951 132.651 32.7854 132.558 33.0351 132.414ZM40.1308 128.572C40.554 128.816 40.8226 129.074 40.9366 129.347C41.056 129.616 41.0397 129.88 40.8877 130.136C40.7412 130.396 40.4862 130.631 40.1226 130.841C39.5746 131.158 38.9886 131.346 38.3645 131.405C37.7459 131.461 37.1897 131.378 36.6959 131.156L37.5343 130.672C38.1203 130.923 38.7579 130.849 39.4471 130.451C39.7944 130.251 39.9653 130.036 39.9599 129.807C39.9599 129.576 39.7482 129.338 39.325 129.093L38.7471 128.76L38.7389 128.764C38.9017 128.965 38.9451 129.184 38.8692 129.422C38.7986 129.657 38.587 129.876 38.2343 130.08C37.8436 130.306 37.4122 130.451 36.9401 130.517C36.4626 130.58 35.9824 130.562 35.4995 130.465C35.0165 130.368 34.5634 130.197 34.1402 129.953C33.7169 129.709 33.4212 129.447 33.253 129.168C33.0848 128.89 33.0576 128.614 33.1716 128.341C33.2855 128.069 33.5379 127.82 33.9285 127.594C34.2813 127.391 34.6638 127.27 35.0762 127.232C35.494 127.192 35.8766 127.218 36.2239 127.312L36.232 127.308L35.4343 126.847L36.289 126.354L40.1308 128.572ZM35.0029 129.455C35.4262 129.699 35.8847 129.839 36.3785 129.873C36.8669 129.905 37.3118 129.804 37.7134 129.573C38.1475 129.322 38.3293 129.06 38.2587 128.788C38.1882 128.515 37.9494 128.262 37.5424 128.027C37.1192 127.782 36.6553 127.643 36.1506 127.608C35.6514 127.571 35.2037 127.666 34.8076 127.895C34.4115 128.124 34.2406 128.382 34.2948 128.67C34.3491 128.952 34.5851 129.214 35.0029 129.455ZM40.1579 125.013C39.778 125.245 39.6044 125.499 39.6369 125.774C39.6695 126.044 39.9083 126.307 40.3532 126.564L42.3474 127.715L41.509 128.199L37.3009 125.77L38.1312 125.29L39.0997 125.84L39.1079 125.835C38.88 125.604 38.785 125.376 38.823 125.154C38.861 124.925 39.0265 124.717 39.3195 124.529L40.1579 125.013ZM46.6396 124.184C47.0357 124.413 47.364 124.575 47.6245 124.668L46.7535 125.171C46.6125 125.109 46.409 125.001 46.1431 124.847L46.0047 124.767L45.9966 124.772C46.1431 124.944 46.1892 125.143 46.1349 125.369C46.0807 125.588 45.8582 125.81 45.4675 126.036C45.1528 126.218 44.8272 126.34 44.4908 126.402C44.1489 126.462 43.8261 126.47 43.5222 126.426C43.2129 126.379 42.9497 126.293 42.7327 126.167C42.4071 125.979 42.247 125.781 42.2524 125.571C42.2579 125.355 42.3474 125.159 42.521 124.983C42.6893 124.805 42.9199 124.603 43.2129 124.377C43.2997 124.321 43.3838 124.257 43.4652 124.184C43.704 123.99 43.8396 123.84 43.8722 123.733C43.9047 123.627 43.8342 123.524 43.6606 123.423C43.4815 123.32 43.2617 123.284 43.0013 123.315C42.7408 123.34 42.4749 123.431 42.2036 123.588C41.954 123.732 41.8156 123.887 41.7885 124.053C41.7559 124.216 41.8455 124.365 42.0571 124.499L41.235 124.974C41.0125 124.833 40.8579 124.665 40.7711 124.471C40.6842 124.277 40.6951 124.07 40.8036 123.851C40.9176 123.628 41.1509 123.415 41.5036 123.212C42.1656 122.83 42.7815 122.662 43.3513 122.709C43.9156 122.753 44.4419 122.916 44.9303 123.198L46.6396 124.184ZM44.2873 123.766C44.385 123.885 44.404 124.018 44.3443 124.166C44.29 124.31 44.1109 124.507 43.8071 124.758C43.5466 124.977 43.3892 125.159 43.335 125.303C43.2807 125.441 43.354 125.568 43.5547 125.683C43.7392 125.79 43.9644 125.832 44.2303 125.81C44.4962 125.788 44.754 125.705 45.0036 125.561C45.34 125.367 45.5082 125.135 45.5082 124.866C45.5028 124.593 45.2667 124.322 44.8001 124.053L44.2954 123.762L44.2873 123.766ZM48.7062 119.063C49.1783 118.791 49.672 118.668 50.1875 118.697C50.703 118.719 51.1968 118.866 51.6689 119.138L54.4363 120.736L53.6142 121.211L51.0503 119.73C50.3449 119.323 49.7263 119.273 49.1945 119.58C48.5922 119.928 48.7659 120.376 49.7155 120.924L51.9131 122.193L51.091 122.667L48.5271 121.187C47.8217 120.78 47.2085 120.727 46.6876 121.027C46.069 121.384 46.2345 121.837 47.1841 122.385L49.3817 123.654L48.5515 124.133L44.3434 121.704L45.1737 121.225L46.0283 121.718L46.0364 121.713C45.814 121.516 45.7163 121.306 45.7434 121.084C45.7706 120.861 45.9415 120.659 46.2562 120.478C46.5926 120.283 46.9426 120.172 47.3062 120.144C47.6697 120.109 48.0333 120.153 48.3969 120.275L48.405 120.271C48.2314 120.095 48.1663 119.892 48.2097 119.66C48.2531 119.428 48.4186 119.229 48.7062 119.063Z" fill="#787868"/>
<path d="M32.154 143.104L33.4563 142.352L42.0385 145.427L43.3017 145.885L43.3147 145.878L42.5203 145.149L37.1418 140.224L38.8348 139.247L47.3128 142.382L48.5891 142.848L48.6021 142.841L47.8077 142.096L42.5464 137.104L43.8487 136.352L48.9798 141.42L50.7119 143.126L49.0449 144.089L39.2385 140.442L39.2255 140.45L43.6273 144.51L45.4375 146.171L43.7836 147.126L40.8534 146.111L32.154 143.104ZM56.4199 140.011C55.7514 140.397 55.0091 140.65 54.193 140.771C53.3682 140.886 52.5521 140.871 51.7446 140.726C50.9285 140.575 50.1906 140.31 49.5307 139.929C48.8709 139.548 48.4107 139.122 48.1503 138.651C47.8898 138.179 47.8638 137.708 48.0721 137.237C48.2718 136.761 48.7059 136.33 49.3744 135.944C50.043 135.558 50.7896 135.307 51.6144 135.192C52.4305 135.072 53.2466 135.087 54.0627 135.237C54.8789 135.388 55.6168 135.653 56.2767 136.034C56.9365 136.415 57.3967 136.841 57.6571 137.312C57.9089 137.778 57.9349 138.25 57.7353 138.726C57.5269 139.197 57.0884 139.625 56.4199 140.011ZM55.4302 139.44C55.8556 139.194 56.1204 138.911 56.2246 138.59C56.3374 138.265 56.294 137.939 56.0943 137.613C55.8947 137.277 55.5647 136.977 55.1046 136.711C54.6444 136.445 54.1235 136.255 53.5418 136.139C52.9688 136.019 52.4001 135.992 51.8358 136.057C51.2802 136.117 50.7896 136.27 50.3642 136.515C49.9388 136.761 49.6696 137.047 49.5568 137.372C49.4526 137.693 49.5003 138.022 49.7 138.357C49.9084 138.688 50.2426 138.986 50.7028 139.252C51.1629 139.518 51.6795 139.711 52.2525 139.831C52.8256 139.941 53.3899 139.966 53.9455 139.906C54.5099 139.841 55.0048 139.686 55.4302 139.44ZM58.3323 132.201C57.7593 132.582 57.5031 133.001 57.5639 133.457C57.6247 133.903 58.0328 134.344 58.7881 134.78L61.9787 136.622L60.8067 137.298L54.0737 133.412L55.2458 132.735L56.8867 133.667L56.8997 133.66C56.5091 133.264 56.3441 132.883 56.4049 132.517C56.4743 132.146 56.7261 131.815 57.1602 131.524L58.3323 132.201ZM69.2975 132.397L63.8408 131.998L63.8408 132.825L66.198 134.186L65.0259 134.863L55.7275 129.495L56.8995 128.818L62.4083 131.998L62.3823 128.615L63.8018 127.796L63.8278 131.058L70.7952 131.532L69.2975 132.397ZM68.3027 123.378C68.0335 123.533 67.8903 123.681 67.8729 123.821C67.8555 123.952 67.9858 124.097 68.2636 124.257L69.0971 124.739L70.2301 124.085L71.1938 124.641L70.0608 125.295L75.83 128.626L74.684 129.287L68.9147 125.957L67.9901 126.49L67.0264 125.934L67.951 125.4L67.0655 124.889C66.5532 124.593 66.2754 124.282 66.232 123.957C66.1886 123.631 66.449 123.305 67.0134 122.979L67.7427 122.558L68.7324 123.13L68.3027 123.378ZM75.5782 122.245C75.0052 122.626 74.749 123.045 74.8098 123.501C74.8706 123.947 75.2787 124.388 76.034 124.824L79.2246 126.666L78.0526 127.342L71.3196 123.456L72.4917 122.779L74.1326 123.711L74.1456 123.704C73.755 123.308 73.59 122.927 73.6508 122.561C73.7202 122.19 73.972 121.859 74.4061 121.568L75.5782 122.245ZM85.1185 123.444C84.45 123.83 83.7077 124.083 82.8916 124.203C82.0668 124.318 81.2506 124.303 80.4432 124.158C79.6271 124.008 78.8891 123.742 78.2293 123.361C77.5695 122.98 77.1093 122.554 76.8488 122.083C76.5884 121.612 76.5623 121.141 76.7707 120.669C76.9704 120.193 77.4045 119.762 78.073 119.376C78.7415 118.99 79.4882 118.74 80.313 118.625C81.1291 118.504 81.9452 118.519 82.7613 118.67C83.5774 118.82 84.3154 119.086 84.9752 119.467C85.6351 119.847 86.0952 120.274 86.3557 120.745C86.6075 121.211 86.6335 121.682 86.4338 122.158C86.2255 122.629 85.787 123.058 85.1185 123.444ZM84.1287 122.872C84.5542 122.627 84.819 122.344 84.9232 122.023C85.036 121.697 84.9926 121.371 84.7929 121.045C84.5932 120.71 84.2633 120.409 83.8032 120.143C83.343 119.878 82.8221 119.687 82.2404 119.572C81.6674 119.452 81.0987 119.424 80.5344 119.489C79.9787 119.549 79.4882 119.702 79.0628 119.948C78.6373 120.193 78.3682 120.479 78.2553 120.805C78.1512 121.126 78.1989 121.454 78.3986 121.79C78.607 122.12 78.9412 122.419 79.4014 122.684C79.8615 122.95 80.3781 123.143 80.9511 123.263C81.5241 123.374 82.0885 123.399 82.6441 123.338C83.2084 123.273 83.7033 123.118 84.1287 122.872ZM89.5573 112.746C90.3213 112.305 91.1114 112.12 91.9275 112.19C92.7523 112.255 93.538 112.503 94.2847 112.934L98.6474 115.453L97.4754 116.13L93.2298 113.679C92.1272 113.042 91.1418 112.975 90.2736 113.476C89.2752 114.052 89.553 114.789 91.1071 115.686L94.6754 117.746L93.5163 118.415L89.2708 115.964C88.1682 115.328 87.1915 115.255 86.3406 115.746C85.8458 116.032 85.6417 116.36 85.7285 116.731C85.8154 117.092 86.2755 117.513 87.109 117.994L90.6773 120.054L89.5052 120.731L82.7723 116.844L83.9444 116.167L85.3118 116.957L85.3248 116.949C84.9862 116.653 84.8256 116.33 84.843 115.979C84.869 115.623 85.1338 115.3 85.6374 115.009C86.714 114.388 87.8556 114.275 89.0625 114.671L89.0885 114.656C88.8194 114.38 88.7152 114.06 88.7759 113.694C88.8454 113.323 89.1059 113.007 89.5573 112.746ZM99.0144 107.287C99.8479 106.806 100.694 106.588 101.554 106.633C102.422 106.673 103.23 106.908 103.976 107.339L108.339 109.858L107.167 110.535L102.921 108.084C102.34 107.748 101.797 107.575 101.293 107.565C100.799 107.55 100.317 107.678 99.8479 107.948C99.3009 108.264 99.0405 108.63 99.0665 109.046C99.0839 109.457 99.5006 109.898 100.317 110.369L103.885 112.429L102.713 113.106L93.4145 107.738L94.5866 107.061L98.5195 109.332L98.5326 109.324C98.2113 109.029 98.0811 108.693 98.1419 108.317C98.194 107.936 98.4848 107.593 99.0144 107.287ZM112.958 107.372C112.29 107.758 111.548 108.011 110.731 108.131C109.907 108.246 109.091 108.231 108.283 108.086C107.467 107.936 106.729 107.67 106.069 107.289C105.409 106.908 104.949 106.482 104.689 106.011C104.428 105.54 104.402 105.069 104.611 104.598C104.81 104.121 105.244 103.69 105.913 103.304C106.581 102.918 107.328 102.668 108.153 102.553C108.969 102.432 109.785 102.447 110.601 102.598C111.417 102.748 112.155 103.014 112.815 103.395C113.475 103.776 113.935 104.202 114.196 104.673C114.447 105.139 114.473 105.61 114.274 106.086C114.065 106.557 113.627 106.986 112.958 107.372ZM111.969 106.8C112.394 106.555 112.659 106.272 112.763 105.951C112.876 105.625 112.832 105.299 112.633 104.973C112.433 104.638 112.103 104.337 111.643 104.071C111.183 103.806 110.662 103.615 110.08 103.5C109.507 103.38 108.939 103.352 108.374 103.417C107.819 103.477 107.328 103.63 106.903 103.876C106.477 104.121 106.208 104.407 106.095 104.733C105.991 105.054 106.039 105.382 106.238 105.718C106.447 106.049 106.781 106.347 107.241 106.612C107.701 106.878 108.218 107.071 108.791 107.191C109.364 107.302 109.928 107.327 110.484 107.266C111.048 107.201 111.543 107.046 111.969 106.8ZM117.397 96.6745C118.161 96.2334 118.951 96.048 119.767 96.1181C120.592 96.1833 121.378 96.4314 122.125 96.8625L126.487 99.3811L125.315 100.058L121.07 97.6068C119.967 96.9702 118.982 96.9026 118.113 97.4038C117.115 97.9802 117.393 98.7169 118.947 99.6141L122.515 101.674L121.356 102.343L117.111 99.8923C116.008 99.2558 115.031 99.1831 114.18 99.6743C113.686 99.96 113.482 100.288 113.568 100.659C113.655 101.02 114.115 101.441 114.949 101.922L118.517 103.982L117.345 104.659L110.612 100.772L111.784 100.095L113.152 100.885L113.165 100.877C112.826 100.581 112.665 100.258 112.683 99.9073C112.709 99.5515 112.974 99.2282 113.477 98.9375C114.554 98.316 115.696 98.2032 116.902 98.5992L116.928 98.5841C116.659 98.3085 116.555 97.9877 116.616 97.6218C116.685 97.2509 116.946 96.9351 117.397 96.6745ZM125.67 96.3345C126.408 96.7104 127.172 96.9009 127.962 96.9059C128.743 96.9059 129.438 96.7305 130.045 96.3796C130.523 96.104 130.831 95.8158 130.97 95.515C131.109 95.2043 131.035 94.9011 130.749 94.6053L131.895 93.9437C132.416 94.455 132.598 94.9712 132.442 95.4925C132.277 96.0087 131.812 96.4874 131.048 96.9285C130.388 97.3094 129.659 97.56 128.86 97.6803C128.062 97.7906 127.254 97.7705 126.438 97.6201C125.631 97.4648 124.88 97.1866 124.185 96.7856C123.517 96.3997 123.056 95.9737 122.805 95.5075C122.562 95.0364 122.54 94.5728 122.74 94.1167C122.939 93.6505 123.352 93.237 123.977 92.8762C125.062 92.2496 126.208 91.999 127.415 92.1243C128.613 92.2446 129.724 92.5905 130.749 93.1618L130.957 93.2821L125.67 96.3345ZM128.834 93.425C128.183 93.1092 127.515 92.9488 126.829 92.9438C126.152 92.9338 125.522 93.0967 124.94 93.4325C124.35 93.7733 124.042 94.1568 124.016 94.5828C123.99 94.9988 124.233 95.3998 124.745 95.7857L128.834 93.425ZM136.796 88.0014C136.354 87.7859 135.894 87.7057 135.416 87.7608C134.93 87.8109 134.496 87.9463 134.114 88.1668C133.775 88.3623 133.562 88.5853 133.476 88.8359C133.397 89.0815 133.497 89.2845 133.775 89.4449C134.018 89.5852 134.309 89.6429 134.648 89.6178C134.986 89.5928 135.312 89.5351 135.624 89.4449C135.937 89.3447 136.38 89.1893 136.953 88.9788C137.673 88.7131 138.372 88.5553 139.049 88.5051C139.735 88.45 140.334 88.5703 140.847 88.866C141.298 89.1266 141.546 89.4249 141.589 89.7607C141.632 90.0965 141.524 90.4298 141.263 90.7606C141.012 91.0864 140.677 91.3696 140.261 91.6102C139.844 91.8507 139.362 92.0487 138.815 92.2041C138.268 92.3494 137.691 92.4121 137.083 92.392C136.475 92.362 135.894 92.2066 135.338 91.9259L136.51 91.2493C137.005 91.4448 137.478 91.5224 137.929 91.4823C138.381 91.4422 138.841 91.2869 139.31 91.0162C139.701 90.7907 139.957 90.5476 140.078 90.2869C140.209 90.0213 140.096 89.7857 139.74 89.5802C139.531 89.4599 139.301 89.4023 139.049 89.4073C138.798 89.4123 138.542 89.4549 138.281 89.5351C138.029 89.6103 137.691 89.7256 137.265 89.881L136.849 90.0313C136.119 90.292 135.381 90.4624 134.635 90.5426C133.897 90.6177 133.237 90.4874 132.655 90.1516C132.256 89.9211 132.03 89.6504 131.978 89.3397C131.917 89.0239 132 88.7106 132.225 88.3999C132.442 88.0841 132.755 87.8084 133.163 87.5729C133.858 87.1719 134.635 86.9388 135.494 86.8737C136.362 86.8035 137.183 86.9564 137.956 87.3323L136.796 88.0014ZM143.625 87.3073C143.903 87.4677 144.194 87.5654 144.497 87.6005C144.801 87.6255 145.07 87.5704 145.305 87.4351L145.722 87.1945L146.659 87.7358L146.125 88.0441C145.561 88.3698 144.953 88.5202 144.302 88.4951C143.642 88.4651 143.061 88.3047 142.557 88.014L138.598 85.7284L137.595 86.3073L136.631 85.751L137.634 85.1721L135.98 84.2173L136.566 83.2775L136.605 83.2549L138.78 84.5105L140.07 83.7662L141.033 84.3225L139.744 85.0668L143.625 87.3073ZM141.171 81.732L139.921 82.4537L138.618 81.7019L139.869 80.9802L141.171 81.732ZM147.904 87.0173L141.171 83.1304L142.343 82.4537L149.076 86.3406L147.904 87.0173ZM147.184 79.4786C147.809 79.1177 148.508 78.8896 149.281 78.7944C150.062 78.6942 150.843 78.7242 151.625 78.8846C152.415 79.04 153.144 79.3107 153.813 79.6966C154.49 80.0875 154.967 80.5136 155.245 80.9747C155.523 81.4258 155.58 81.8794 155.415 82.3355C155.25 82.7816 154.855 83.1851 154.229 83.5459C153.613 83.9018 152.966 84.1098 152.289 84.1699C151.621 84.2251 151.013 84.1649 150.466 83.9895L150.453 83.997L154.399 86.275L153.227 86.9517L143.889 81.5611L145.061 80.8845L146.429 81.6739L146.442 81.6664C146.138 81.3506 146.029 80.9973 146.116 80.6063C146.212 80.2103 146.568 79.8344 147.184 79.4786ZM153.057 83.0798C153.752 82.6788 154.038 82.2327 153.917 81.7416C153.787 81.2454 153.361 80.7892 152.641 80.3732C152.189 80.1126 151.69 79.9196 151.143 79.7943C150.605 79.664 150.062 79.6264 149.515 79.6816C148.959 79.7317 148.452 79.8896 147.991 80.1552C147.306 80.5512 147.019 80.9973 147.132 81.4935C147.253 81.9846 147.666 82.4332 148.369 82.8392C149.124 83.2753 149.906 83.5359 150.713 83.6211C151.512 83.7013 152.293 83.5209 153.057 83.0798ZM156.098 78.7683C156.836 79.1442 157.6 79.3347 158.39 79.3397C159.171 79.3397 159.866 79.1643 160.474 78.8134C160.951 78.5378 161.259 78.2496 161.398 77.9488C161.537 77.6381 161.463 77.3349 161.177 77.0391L162.323 76.3775C162.844 76.8888 163.026 77.405 162.87 77.9263C162.705 78.4425 162.24 78.9212 161.476 79.3623C160.817 79.7432 160.087 79.9938 159.289 80.1141C158.49 80.2244 157.682 80.2043 156.866 80.0539C156.059 79.8986 155.308 79.6204 154.613 79.2194C153.945 78.8335 153.485 78.4075 153.233 77.9413C152.99 77.4702 152.968 77.0066 153.168 76.5505C153.367 76.0843 153.78 75.6708 154.405 75.31C155.49 74.6834 156.636 74.4328 157.843 74.5581C159.041 74.6784 160.152 75.0243 161.177 75.5956L161.385 75.7159L156.098 78.7683ZM159.262 75.8588C158.611 75.543 157.943 75.3826 157.257 75.3776C156.58 75.3676 155.95 75.5305 155.369 75.8663C154.778 76.2071 154.47 76.5906 154.444 77.0166C154.418 77.4326 154.661 77.8336 155.173 78.2195L159.262 75.8588ZM161.912 70.9762C162.745 70.4951 163.592 70.277 164.451 70.3221C165.319 70.3622 166.127 70.5978 166.874 71.0289L171.236 73.5475L170.064 74.2241L165.819 71.7732C165.237 71.4374 164.694 71.2644 164.191 71.2544C163.696 71.2394 163.214 71.3672 162.745 71.6378C162.198 71.9536 161.938 72.3195 161.964 72.7355C161.981 73.1465 162.398 73.5876 163.214 74.0587L166.782 76.1187L165.61 76.7953L158.877 72.9084L160.049 72.2318L161.417 73.0212L161.43 73.0137C161.109 72.718 160.978 72.3821 161.039 72.0062C161.091 71.6253 161.382 71.282 161.912 70.9762ZM169.605 63.7534L178.903 69.1214L177.731 69.798L176.39 69.0237L176.377 69.0312C176.681 69.347 176.78 69.7003 176.676 70.0913C176.581 70.4772 176.225 70.8481 175.608 71.204C174.983 71.5648 174.28 71.7954 173.499 71.8956C172.717 71.9858 171.931 71.9533 171.141 71.7979C170.351 71.6325 169.618 71.3543 168.94 70.9634C168.272 70.5774 167.799 70.1589 167.521 69.7078C167.252 69.2517 167.2 68.8006 167.365 68.3545C167.538 67.9035 167.938 67.4975 168.563 67.1366C169.179 66.7807 169.826 66.5777 170.503 66.5276C171.189 66.4725 171.806 66.5326 172.353 66.7081L172.366 66.7005L168.433 64.43L169.605 63.7534ZM174.788 70.5198C175.552 70.0787 175.864 69.6276 175.725 69.1665C175.578 68.7004 175.131 68.2518 174.384 67.8208C173.681 67.4148 172.899 67.1792 172.04 67.114C171.189 67.0439 170.421 67.2068 169.735 67.6027C169.275 67.8684 169.001 68.1616 168.914 68.4824C168.819 68.7981 168.88 69.1139 169.097 69.4297C169.322 69.7404 169.661 70.0261 170.113 70.2867C170.833 70.7027 171.619 70.9458 172.47 71.016C173.321 71.0862 174.093 70.9208 174.788 70.5198Z" fill="#3D3D3D"/>
</g>
<defs>
<filter id="filter0_d_130_3276" x="3.51953" y="2.12976" width="298.968" height="225.069" filterUnits="userSpaceOnUse" color-interpolation-filters="sRGB">
<feFlood flood-opacity="0" result="BackgroundImageFix"/>
<feColorMatrix in="SourceAlpha" type="matrix" values="0 0 0 0 0 0 0 0 0 0 0 0 0 0 0 0 0 0 127 0" result="hardAlpha"/>
<feOffset dx="22.5561" dy="63.909"/>
<feGaussianBlur stdDeviation="1.87968"/>
<feComposite in2="hardAlpha" operator="out"/>
<feColorMatrix type="matrix" values="0 0 0 0 0 0 0 0 0 0 0 0 0 0 0 0 0 0 0.14 0"/>
<feBlend mode="normal" in2="BackgroundImageFix" result="effect1_dropShadow_130_3276"/>
<feBlend mode="normal" in="SourceGraphic" in2="effect1_dropShadow_130_3276" result="shape"/>
</filter>
</defs>
</svg>
